<?xml version="1.0" encoding="UTF-8" standalone="no"?>
<svg width="228px" height="50px" viewBox="0 0 228 50" version="1.1" xmlns="http://www.w3.org/2000/svg" xmlns:xlink="http://www.w3.org/1999/xlink" xmlns:sketch="http://www.bohemiancoding.com/sketch/ns">
    <!-- Generator: Sketch 3.0.1 (7597) - http://www.bohemiancoding.com/sketch -->
    <title>logo-ninja-accountant-black</title>
    <description>Created with Sketch.</description>
    <defs></defs>
    <g id="0-Style-Guide" stroke="none" stroke-width="1" fill="none" fill-rule="evenodd" sketch:type="MSPage">
        <g id="logo-ninja-accountant-black" sketch:type="MSArtboardGroup" fill="#222222">
            <g id="Logo-/-Ninja-Accountant-Logo-Black" sketch:type="MSLayerGroup">
                <g id="ninja-logo-2" sketch:type="MSShapeGroup">
                    <path d="M22,28.0000001 L14,28.0000001 L22,22 L22,13 L28,22.0000001 L38,22.0000001 L28,28.0000001 L28,35.9999991 L22,28.0000001 Z M30,28 L40,21.9999991 L40,20.9999991 L29,20.9999991 L29,3.00000002 L28,3.00000002 L28,20 L22,11.0000001 L21,11.0000001 L21,20.9999991 L3.99999996,20.9999991 L3.99999996,21.9999991 L20,22 L12,28 L12,29 L21,29 L21,46 L22,46 L22,30 L28,38 L29,38 L29,29 L46,29 L46,28 L30,28 Z" id="Fill-1"></path>
                    <path d="M23,25 C23,23.896 23.896,23 25,23 C26.104,23 27,23.896 27,25 C27,26.104 26.104,27 25,27 C23.896,27 23,26.104 23,25 Z M25,22 C23.344,22 22,23.343 22,25 C22,26.657 23.344,28 25,28 C26.656,28 28,26.657 28,25 C28,23.343 26.656,22 25,22" id="Fill-5"></path>
                    <path d="M25.2217751,2.20541667 C24.6492102,2.20541667 24.1133162,2.42958333 23.7099371,2.83458333 L2.82423675,23.84375 C1.99580953,24.6770833 1.99997666,26.0304167 2.83340445,26.85875 L23.273221,47.17375 C23.6757666,47.57375 24.2099938,47.79375 24.7767247,47.79375 C25.3484562,47.79375 25.8860171,47.5704167 26.2877293,47.1645833 L47.1742631,26.1554167 C47.5751418,25.7520833 47.7960002,25.2154167 47.7943334,24.64625 C47.7926665,24.07625 47.5684744,23.5420833 47.1650954,23.1404167 L26.7252789,2.82541667 C26.3218998,2.42541667 25.7893395,2.20541667 25.2217751,2.20541667 M24.7767247,50.0004167 C23.6224272,50.0004167 22.5356374,49.55125 21.7180447,48.7379167 L1.2782282,28.42375 C-0.419464206,26.7370833 -0.426965056,23.9845833 1.25989279,22.28875 L22.1447597,1.27875 C22.9656861,0.45375 24.0583099,0.000416666667 25.2217751,0.000416666667 C26.3760726,0.000416666667 27.462029,0.447916667 28.2804551,1.26041667 L48.7194382,21.5754167 C49.5420314,22.3929167 49.997083,23.4804167 49.9995833,24.6395833 C50.002917,25.79875 49.5545328,26.88875 48.738607,27.71125 L27.8529067,48.7195833 C27.0336471,49.5445833 25.9401899,50.0004167 24.7767247,50.0004167" id="Fill-1"></path>
                </g>
                <g id="Group" transform="translate(60.000000, 15.000000)" sketch:type="MSShapeGroup">
                    <path d="M10.9557707,1.30279412 L13.4577256,1.30279412 L13.4577256,16.1051471 L10.7437406,16.1051471 L2.34734962,5.30514706 L2.34734962,16.1051471 L-0.154605263,16.1051471 L-0.154605263,1.30279412 L2.34734962,1.30279412 L10.9553289,12.3569118 L10.9553289,1.30279412 L10.9557707,1.30279412 Z" id="Shape"></path>
                    <path d="M16.3201316,2.59455882 C16.0232895,2.29808824 15.8748684,1.94514706 15.8748684,1.53573529 C15.8748684,1.12632353 16.0232895,0.773382353 16.3201316,0.476911765 C16.6174154,0.180441176 16.9703571,0.0322058824 17.380282,0.0322058824 C17.7902068,0.0322058824 18.1435902,0.180441176 18.4404323,0.476911765 C18.7372744,0.773382353 18.8856955,1.12632353 18.8856955,1.53573529 C18.8856955,1.94514706 18.7372744,2.29808824 18.4404323,2.59455882 C18.1431485,2.89102941 17.789765,3.03926471 17.380282,3.03926471 C16.9699154,3.03926471 16.6174154,2.89102941 16.3201316,2.59455882 L16.3201316,2.59455882 Z M18.5464474,16.1051471 L16.1717105,16.1051471 L16.1717105,4.83926471 L18.5464474,4.83926471 L18.5464474,16.1051471 L18.5464474,16.1051471 Z" id="Shape"></path>
                    <path d="M23.2959211,10.0063235 L23.2959211,16.1051471 L20.9211842,16.1051471 L20.9211842,4.83926471 L23.2959211,4.83926471 L23.2959211,6.89338235 C23.6775752,6.20205882 24.2041165,5.65808824 24.8755451,5.26279412 C25.5469737,4.8675 26.2714098,4.66985294 27.0488534,4.66985294 C28.3210338,4.66985294 29.3493797,5.05808824 30.133891,5.83455882 C30.9179605,6.61102941 31.3106579,7.73338235 31.3106579,9.20161765 L31.3106579,16.1051471 L28.9359211,16.1051471 L28.9359211,9.92161765 C28.9359211,7.84632353 28.0736654,6.80867647 26.3491541,6.80867647 C25.5293045,6.80867647 24.8150282,7.08044118 24.2076504,7.62397059 C23.5998308,8.1675 23.2959211,8.96161765 23.2959211,10.0063235 L23.2959211,10.0063235 Z" id="Shape"></path>
                    <path d="M33.557735,16.6345588 L33.557735,4.83926471 L35.9324718,4.83926471 L35.9324718,16.7197059 C35.9324718,17.9055882 35.5751128,18.8475 34.8617199,19.5463235 C34.1478853,20.2451471 33.2856297,20.5945588 32.2753947,20.5945588 C31.264718,20.5945588 30.3423872,20.2204412 29.5079605,19.4722059 L30.6105169,17.6938235 C31.0915602,18.1597059 31.5756955,18.3926471 32.0629229,18.3926471 C32.5505921,18.3926471 32.9216447,18.2369118 33.1765226,17.9263235 C33.4305169,17.6157353 33.557735,17.1851471 33.557735,16.6345588 L33.557735,16.6345588 Z M33.66375,2.59455882 C33.3669079,2.29808824 33.2184868,1.94514706 33.2184868,1.53573529 C33.2184868,1.12632353 33.3669079,0.773382353 33.66375,0.476911765 C33.9605921,0.180441176 34.3139756,0.0322058824 34.7239004,0.0322058824 C35.1338252,0.0322058824 35.4872086,0.180441176 35.783609,0.476911765 C36.0804511,0.773382353 36.2288722,1.12632353 36.2288722,1.53573529 C36.2288722,1.94514706 36.0804511,2.29808824 35.783609,2.59455882 C35.4867669,2.89102941 35.1333835,3.03926471 34.7239004,3.03926471 C34.3139756,3.03926471 33.9605921,2.89102941 33.66375,2.59455882 L33.66375,2.59455882 Z" id="Shape"></path>
                    <path d="M47.4461466,16.1051471 L45.2834398,16.1051471 L45.2834398,14.6016176 C44.3509492,15.7169118 43.0999718,16.2745588 41.5305075,16.2745588 C40.3572744,16.2745588 39.3859117,15.9432353 38.615094,15.2792647 C37.844718,14.6157353 37.4595301,13.7302941 37.4595301,12.6220588 C37.4595301,11.5138235 37.8694549,10.6839706 38.6893045,10.1333824 C39.5087124,9.58279412 40.6187782,9.3075 42.0181767,9.3075 L45.0926128,9.3075 L45.0926128,8.88397059 C45.0926128,7.38794118 44.2581861,6.63926471 42.5906579,6.63926471 C41.5446429,6.63926471 40.4562218,7.02044118 39.3253947,7.78279412 L38.2652444,6.30044118 C39.6363722,5.21338235 41.1912594,4.66985294 42.929906,4.66985294 C44.2586278,4.66985294 45.343515,5.00514706 46.1845677,5.67573529 C47.0251786,6.34676471 47.4461466,7.40161765 47.4461466,8.84161765 L47.4461466,16.1051471 L47.4461466,16.1051471 Z M45.0714098,11.9122059 L45.0714098,10.9592647 L42.3998308,10.9592647 C40.6890132,10.9592647 39.8338252,11.4961765 39.8338252,12.5686765 C39.8338252,13.1192647 40.0458553,13.5392647 40.4699154,13.8282353 C40.8939756,14.1176471 41.4841259,14.2623529 42.2403665,14.2623529 C42.9966071,14.2623529 43.6574342,14.0510294 44.2228477,13.6270588 C44.7882613,13.2039706 45.0714098,12.6322059 45.0714098,11.9122059 L45.0714098,11.9122059 Z" id="Shape"></path>
                    <path d="M56.8806015,12.7380882 L55.396391,16.1051471 L52.724812,16.1051471 L59.2553383,1.30279412 L61.9269173,1.30279412 L68.4574436,16.1051471 L65.7858647,16.1051471 L64.3016541,12.7380882 L56.8806015,12.7380882 L56.8806015,12.7380882 Z M63.2839098,10.4298529 L60.5906861,4.33102941 L57.8979041,10.4298529 L63.2839098,10.4298529 L63.2839098,10.4298529 Z" id="Shape"></path>
                    <path d="M74.1186466,16.2745588 C72.5496241,16.2745588 71.1996992,15.7420588 70.0688722,14.6757353 C68.9376034,13.6102941 68.3726316,12.2161765 68.3726316,10.4933824 C68.3726316,8.77147059 68.962782,7.36985294 70.1430827,6.28985294 C71.3233835,5.20985294 72.7616541,4.66985294 74.4583365,4.66985294 C76.1545771,4.66985294 77.5888722,5.25573529 78.7621053,6.4275 L77.3627068,8.14279412 C76.3873684,7.29573529 75.4049624,6.87220588 74.4154887,6.87220588 C73.426015,6.87220588 72.5672932,7.20044118 71.8393233,7.85691176 C71.1113534,8.51338235 70.7473684,9.36044118 70.7473684,10.3980882 C70.7473684,11.4357353 71.1078195,12.3145588 71.8287218,13.0345588 C72.5496241,13.7545588 73.4366165,14.1145588 74.4892575,14.1145588 C75.5418985,14.1145588 76.5357895,13.6345588 77.4682801,12.6745588 L78.8676786,14.1992647 C77.4965508,15.5827941 75.9133929,16.2745588 74.1186466,16.2745588 L74.1186466,16.2745588 Z" id="Shape"></path>
                    <path d="M85.2709868,16.2745588 C83.7019643,16.2745588 82.3520395,15.7420588 81.2212124,14.6757353 C80.0899436,13.6102941 79.5249718,12.2161765 79.5249718,10.4933824 C79.5249718,8.77147059 80.1151222,7.36985294 81.2954229,6.28985294 C82.4757237,5.20985294 83.9139944,4.66985294 85.6106767,4.66985294 C87.3069173,4.66985294 88.7412124,5.25573529 89.9144455,6.4275 L88.515047,8.14279412 C87.5397086,7.29573529 86.5573026,6.87220588 85.5678289,6.87220588 C84.5783553,6.87220588 83.7196335,7.20044118 82.9916635,7.85691176 C82.2636936,8.51338235 81.8997086,9.36044118 81.8997086,10.3980882 C81.8997086,11.4357353 82.2601598,12.3145588 82.981062,13.0345588 C83.7019643,13.7545588 84.5889568,14.1145588 85.6415977,14.1145588 C86.6942387,14.1145588 87.6881297,13.6345588 88.6206203,12.6745588 L90.0200188,14.1992647 C88.648891,15.5827941 87.0657331,16.2745588 85.2709868,16.2745588 L85.2709868,16.2745588 Z" id="Shape"></path>
                    <path d="M100.622406,14.5910294 C99.4911372,15.7133824 98.0780451,16.2741176 96.3818045,16.2741176 C94.6851222,16.2741176 93.2715883,15.7133824 92.1407613,14.5910294 C91.0094925,13.4686765 90.4445207,12.0957353 90.4445207,10.4722059 C90.4445207,8.84911765 91.0094925,7.47573529 92.1407613,6.35338235 C93.2715883,5.23102941 94.6851222,4.66985294 96.3818045,4.66985294 C98.0780451,4.66985294 99.4911372,5.23102941 100.622406,6.35338235 C101.753233,7.47573529 102.318647,8.84911765 102.318647,10.4722059 C102.318205,12.0957353 101.752791,13.4686765 100.622406,14.5910294 L100.622406,14.5910294 Z M93.8268421,13.1298529 C94.4982707,13.815 95.3494831,14.1569118 96.3818045,14.1569118 C97.4132425,14.1569118 98.2653383,13.815 98.9363252,13.1298529 C99.6077538,12.4451471 99.943468,11.5592647 99.943468,10.4722059 C99.943468,9.38514706 99.607312,8.49970588 98.9363252,7.81455882 C98.2648966,7.12985294 97.4132425,6.7875 96.3818045,6.7875 C95.3494831,6.7875 94.4978289,7.12985294 93.8268421,7.81455882 C93.1549718,8.49970588 92.8196992,9.38514706 92.8196992,10.4722059 C92.8192575,11.5592647 93.1549718,12.4451471 93.8268421,13.1298529 L93.8268421,13.1298529 Z" id="Shape"></path>
                    <path d="M111.838355,10.9380882 L111.838355,4.83926471 L114.213092,4.83926471 L114.213092,16.1051471 L111.838355,16.1051471 L111.838355,14.0514706 C111.456701,14.7427941 110.929718,15.2867647 110.258731,15.6816176 C109.586861,16.0769118 108.862867,16.2745588 108.085423,16.2745588 C106.813242,16.2745588 105.784897,15.8867647 105.000385,15.1098529 C104.216316,14.3333824 103.823618,13.2110294 103.823618,11.7427941 L103.823618,4.83926471 L106.198355,4.83926471 L106.198355,11.0227941 C106.198355,13.0985294 107.060611,14.1357353 108.785122,14.1357353 C109.60453,14.1357353 110.318806,13.8644118 110.926626,13.3204412 C111.534445,12.7773529 111.838355,11.9832353 111.838355,10.9380882 L111.838355,10.9380882 Z" id="Shape"></path>
                    <path d="M118.962124,10.0063235 L118.962124,16.1051471 L116.587387,16.1051471 L116.587387,4.83926471 L118.962124,4.83926471 L118.962124,6.89338235 C119.343778,6.20205882 119.87032,5.65808824 120.541748,5.26279412 C121.213177,4.8675 121.937613,4.66985294 122.715056,4.66985294 C123.987237,4.66985294 125.015583,5.05808824 125.800094,5.83455882 C126.584164,6.61102941 126.976861,7.73338235 126.976861,9.20161765 L126.976861,16.1051471 L124.602124,16.1051471 L124.602124,9.92161765 C124.602124,7.84632353 123.739868,6.80867647 122.015357,6.80867647 C121.195508,6.80867647 120.481231,7.08044118 119.873853,7.62397059 C119.266476,8.1675 118.962124,8.96161765 118.962124,10.0063235 L118.962124,10.0063235 Z" id="Shape"></path>
                    <path d="M132.002415,6.74514706 L132.002415,12.4627941 C132.002415,12.9997059 132.143327,13.4267647 132.426476,13.7439706 C132.709182,14.0616176 133.104972,14.2204412 133.613844,14.2204412 C134.122274,14.2204412 134.610385,13.9733824 135.076852,13.4788235 L136.05219,15.1517647 C135.217763,15.9004412 134.295432,16.2741176 133.285197,16.2741176 C132.274521,16.2741176 131.412265,15.9247059 130.69843,15.2258824 C129.984596,14.5270588 129.627679,13.5847059 129.627679,12.3992647 L129.627679,6.74514706 L128.207077,6.74514706 L128.207077,4.83926471 L129.627679,4.83926471 L129.627679,1.30279412 L132.002415,1.30279412 L132.002415,4.83926471 L134.971278,4.83926471 L134.971278,6.74514706 L132.002415,6.74514706 L132.002415,6.74514706 Z" id="Shape"></path>
                    <path d="M146.017603,16.1051471 L143.854897,16.1051471 L143.854897,14.6016176 C142.922406,15.7169118 141.671429,16.2745588 140.101964,16.2745588 C138.928731,16.2745588 137.957368,15.9432353 137.186551,15.2792647 C136.416175,14.6157353 136.030987,13.7302941 136.030987,12.6220588 C136.030987,11.5138235 136.440912,10.6839706 137.260761,10.1333824 C138.080169,9.58279412 139.190235,9.3075 140.589633,9.3075 L143.66407,9.3075 L143.66407,8.88397059 C143.66407,7.38794118 142.829643,6.63926471 141.162115,6.63926471 C140.1161,6.63926471 139.027679,7.02044118 137.896852,7.78279412 L136.836701,6.30044118 C138.207829,5.21338235 139.762716,4.66985294 141.501363,4.66985294 C142.830085,4.66985294 143.914972,5.00514706 144.756024,5.67573529 C145.596635,6.34676471 146.017603,7.40161765 146.017603,8.84161765 L146.017603,16.1051471 L146.017603,16.1051471 Z M143.642867,11.9122059 L143.642867,10.9592647 L140.971288,10.9592647 C139.26047,10.9592647 138.405282,11.4961765 138.405282,12.5686765 C138.405282,13.1192647 138.617312,13.5392647 139.041372,13.8282353 C139.465432,14.1176471 140.055583,14.2623529 140.811823,14.2623529 C141.568064,14.2623529 142.228891,14.0510294 142.794305,13.6270588 C143.36016,13.2039706 143.642867,12.6322059 143.642867,11.9122059 L143.642867,11.9122059 Z" id="Shape"></path>
                    <path d="M150.639417,10.0063235 L150.639417,16.1051471 L148.26468,16.1051471 L148.26468,4.83926471 L150.639417,4.83926471 L150.639417,6.89338235 C151.021071,6.20205882 151.547613,5.65808824 152.219041,5.26279412 C152.89047,4.8675 153.614906,4.66985294 154.39235,4.66985294 C155.66453,4.66985294 156.692876,5.05808824 157.477387,5.83455882 C158.261457,6.61102941 158.654154,7.73338235 158.654154,9.20161765 L158.654154,16.1051471 L156.279417,16.1051471 L156.279417,9.92161765 C156.279417,7.84632353 155.417162,6.80867647 153.69265,6.80867647 C152.872801,6.80867647 152.158524,7.08044118 151.551147,7.62397059 C150.943327,8.1675 150.639417,8.96161765 150.639417,10.0063235 L150.639417,10.0063235 Z" id="Shape"></path>
                    <path d="M163.679267,6.74514706 L163.679267,12.4627941 C163.679267,12.9997059 163.820179,13.4267647 164.103327,13.7439706 C164.386034,14.0616176 164.781823,14.2204412 165.290695,14.2204412 C165.799126,14.2204412 166.287237,13.9733824 166.753703,13.4788235 L167.729041,15.1517647 C166.894615,15.9004412 165.972284,16.2741176 164.962049,16.2741176 C163.951372,16.2741176 163.089117,15.9247059 162.375282,15.2258824 C161.661447,14.5270588 161.30453,13.5847059 161.30453,12.3992647 L161.30453,6.74514706 L159.883929,6.74514706 L159.883929,4.83926471 L161.30453,4.83926471 L161.30453,1.30279412 L163.679267,1.30279412 L163.679267,4.83926471 L166.64813,4.83926471 L166.64813,6.74514706 L163.679267,6.74514706 L163.679267,6.74514706 Z" id="Shape"></path>
                </g>
            </g>
        </g>
    </g>
</svg>