<?xml version="1.0" encoding="UTF-8" standalone="no"?>
<svg width="370px" height="405px" viewBox="0 0 370 405" version="1.1" xmlns="http://www.w3.org/2000/svg" xmlns:xlink="http://www.w3.org/1999/xlink" xmlns:sketch="http://www.bohemiancoding.com/sketch/ns">
    <!-- Generator: Sketch 3.0.1 (7597) - http://www.bohemiancoding.com/sketch -->
    <title>ninja-cloud</title>
    <description>Created with Sketch.</description>
    <defs></defs>
    <g id="0-Style-Guide" stroke="none" stroke-width="1" fill="none" fill-rule="evenodd" sketch:type="MSPage">
        <g id="ninja-cloud" sketch:type="MSArtboardGroup">
            <g id="Cloud-+-Ninja" sketch:type="MSLayerGroup">
                <g id="Cloud" transform="translate(0.000000, 182.816377)" sketch:type="MSShapeGroup">
                    <path d="M104.944123,164.636281 C104.44306,158.641842 98.9839037,153.920036 92.3179072,153.920036 C91.4204483,153.920036 90.5452683,154.006844 89.7007742,154.169506 C88.2513887,147.693825 81.6349941,142.801352 73.6877542,142.801352 C68.6443297,142.801352 64.136438,144.772247 61.144348,147.867022 C59.2443414,146.823631 57.0219222,146.222291 54.6460733,146.222291 C48.4769369,146.222291 43.3406139,150.266904 42.2115392,155.621234 C37.8974313,155.616178 34.423614,157.777126 33.1167289,160.798576 C30.6408354,160.907298 28.5251865,162.255783 27.4890104,164.186224 C26.5490956,163.718047 25.472145,163.452142 24.3275171,163.452142 C21.7099638,163.452142 19.4530755,164.846139 18.3740231,166.865496 L17.7939326,166.865496 C16.8750356,166.423867 15.8308727,166.170605 14.7211343,166.170605 C11.0577367,166.170605 8.0883459,168.893703 8.0883459,172.252696 C8.0883459,172.600352 8.12743895,172.939159 8.18839049,173.271224 C7.27537848,172.635329 6.11057357,172.252696 4.84067979,172.252696 C1.91206347,172.252696 -0.462524391,174.281324 -0.462524391,176.783607 C-0.462524391,179.06339 1.51020367,180.944528 4.0756329,181.261843 L14.7211343,181.314097 L95.3331167,181.314097 L105.978618,181.314097 C111.018259,181.314097 115.103274,177.568257 115.103274,172.947166 C115.103274,168.326075 111.0191,164.581078 105.979459,164.581078 C105.629303,164.581078 105.284191,164.600884 104.944123,164.636281 Z" id="Shape-2" fill="#FFDA39"></path>
                    <path d="M332.322131,66.6669055 C332.043753,63.3365492 329.010786,60.7132351 325.30733,60.7132351 C324.808725,60.7132351 324.322498,60.7614638 323.853319,60.8518341 C323.048077,57.2541128 319.372179,54.5359801 314.956896,54.5359801 C312.1549,54.5359801 309.650431,55.6309592 307.988103,57.3503361 C306.932508,56.7706551 305.697789,56.4365659 304.377828,56.4365659 C300.950415,56.4365659 298.096806,58.6836492 297.469521,61.6583774 C295.072714,61.6555679 293.14275,62.856135 292.416678,64.5347751 C291.041136,64.595178 289.865735,65.3443619 289.290063,66.4168654 C288.76787,66.1567581 288.169544,66.0090284 287.533618,66.0090284 C286.079373,66.0090284 284.825504,66.7834972 284.22601,67.9054001 L283.903727,67.9054001 C283.393211,67.6600423 282.813101,67.5193363 282.196559,67.5193363 C280.16127,67.5193363 278.511552,69.0322194 278.511552,70.8983895 C278.511552,71.0915385 278.533272,71.2797709 278.567135,71.4642575 C278.059889,71.1109705 277.412753,70.8983895 276.707233,70.8983895 C275.080169,70.8983895 273.760909,72.025443 273.760909,73.4156473 C273.760909,74.6822362 274.856906,75.7273477 276.282192,75.90364 L282.196559,75.9326709 L326.982503,75.9326709 L332.89687,75.9326709 C335.696765,75.9326709 337.966294,73.8515786 337.966294,71.2842192 C337.966294,68.7168598 335.697232,66.6362358 332.897337,66.6362358 C332.702799,66.6362358 332.511064,66.6472394 332.322131,66.6669055 Z" id="Shape-3" fill="#FFDA39" transform="translate(305.850384, 65.218384) scale(-1, 1) translate(-305.850384, -65.218384) "></path>
                    <path d="M364.411607,193.387633 C364.133229,190.057277 361.100262,187.433963 357.396806,187.433963 C356.898201,187.433963 356.411973,187.482192 355.942794,187.572562 C355.137553,183.97484 351.461654,181.256708 347.046372,181.256708 C344.244375,181.256708 341.739906,182.351687 340.077578,184.071064 C339.021983,183.491383 337.787264,183.157294 336.467304,183.157294 C333.03989,183.157294 330.186281,185.404377 329.558996,188.379105 C327.162189,188.376296 325.232226,189.576863 324.506154,191.255503 C323.130611,191.315906 321.955211,192.06509 321.379538,193.137593 C320.857346,192.877486 320.25902,192.729756 319.623094,192.729756 C318.168848,192.729756 316.914979,193.504225 316.315486,194.626128 L315.993202,194.626128 C315.482687,194.38077 314.902577,194.240064 314.286035,194.240064 C312.250745,194.240064 310.601028,195.752947 310.601028,197.619117 C310.601028,197.812266 310.622747,198.000499 310.65661,198.184985 C310.149364,197.831698 309.502228,197.619117 308.796708,197.619117 C307.169644,197.619117 305.850384,198.746171 305.850384,200.136375 C305.850384,201.402964 306.946381,202.448075 308.371668,202.624368 L314.286035,202.653399 L359.071979,202.653399 L364.986345,202.653399 C367.78624,202.653399 370.055769,200.572306 370.055769,198.004947 C370.055769,195.437588 367.786708,193.356963 364.986812,193.356963 C364.792275,193.356963 364.60054,193.367967 364.411607,193.387633 Z" id="Shape-4" fill="#FFDA39" transform="translate(337.939860, 191.939111) scale(-1, 1) translate(-337.939860, -191.939111) "></path>
                    <path d="M314.37967,174.684355 C312.94533,157.524738 297.318009,144.008147 278.236,144.008147 C275.666944,144.008147 273.161663,144.256645 270.744223,144.722276 C266.595228,126.185065 247.655209,112.179922 224.905526,112.179922 C210.468274,112.179922 197.564032,117.821787 188.998907,126.680854 C183.559969,123.694055 177.198096,121.972665 170.397017,121.972665 C152.737314,121.972665 138.034131,133.550732 134.802054,148.87798 C122.452536,148.863504 112.508424,155.04941 108.767349,163.698581 C101.679883,164.009807 95.6236495,167.869967 92.6575029,173.396027 C89.9669131,172.055827 86.8840459,171.294652 83.6074466,171.294652 C76.1144669,171.294652 69.6539228,175.285093 66.5650391,181.065682 L64.9044783,181.065682 C62.2740538,179.80148 59.2850444,179.076493 56.1083194,179.076493 C45.6215171,179.076493 37.1213712,186.871604 37.1213712,196.487021 C37.1213712,197.482218 37.2332785,198.452083 37.4077578,199.402648 C34.7941795,197.582341 31.4598216,196.487021 27.8246374,196.487021 C19.4412121,196.487021 12.6437426,202.294149 12.6437426,209.457158 C12.6437426,215.983241 18.2908526,221.368164 25.6346225,222.276508 L56.1083194,222.426089 L286.867306,222.426089 L317.341003,222.426089 C331.767426,222.426089 343.461143,211.703289 343.461143,198.475003 C343.461143,185.246718 331.769832,174.52633 317.34341,174.52633 C316.341057,174.52633 315.353143,174.583026 314.37967,174.684355 Z" id="Shape" fill="#FBCB00"></path>
                    <path d="M100.735191,12.6109583 C100.456813,9.28060193 97.4238466,6.65728786 93.7203904,6.65728786 C93.2217853,6.65728786 92.7355578,6.70551657 92.2663786,6.79588687 C91.4611373,3.19816556 87.7852387,0.480032905 83.3699566,0.480032905 C80.5679596,0.480032905 78.063491,1.57501192 76.4011627,3.29438886 C75.3455679,2.71470786 74.110849,2.38061868 72.7908884,2.38061868 C69.3634749,2.38061868 66.5098659,4.62770199 65.8825811,7.60243011 C63.4857737,7.59962067 61.5558102,8.80018779 60.8297384,10.4788279 C59.4541957,10.5392308 58.2787956,11.2884147 57.7031227,12.3609182 C57.1809303,12.1008109 56.5826042,11.9530812 55.9466784,11.9530812 C54.4924331,11.9530812 53.238564,12.72755 52.6390702,13.8494528 L52.3167869,13.8494528 C51.8062713,13.6040951 51.2261613,13.463389 50.6096192,13.463389 C48.5743297,13.463389 46.9246126,14.9762721 46.9246126,16.8424423 C46.9246126,17.0355913 46.9463317,17.2238237 46.9801948,17.4083102 C46.4729488,17.0550232 45.8258131,16.8424423 45.1202928,16.8424423 C43.4932289,16.8424423 42.173969,17.9694957 42.173969,19.3597 C42.173969,20.626289 43.2699659,21.6714004 44.6952524,21.8476928 L50.6096192,21.8767236 L95.3955633,21.8767236 L101.30993,21.8767236 C104.109825,21.8767236 106.379354,19.7956314 106.379354,17.228272 C106.379354,14.6609126 104.110292,12.5802886 101.310397,12.5802886 C101.115859,12.5802886 100.924124,12.5912922 100.735191,12.6109583 Z" id="Shape-5" fill="#FFDA39" transform="translate(74.263444, 11.162436) scale(-1, 1) translate(-74.263444, -11.162436) "></path>
                </g>
                <g id="Ninja" sketch:type="MSShapeGroup">
                    <g id="Group">
                        <g transform="translate(42.343324, 67.665012)" id="Shape">
                            <path d="M61.3370631,39.3870968 C61.0957468,39.3870968 60.8581622,39.2927857 60.6802847,39.1178138 C54.4831822,32.9913152 27.9943631,30.8085097 5.27082478,30.8085097 C3.94856064,30.8085097 3.20097763,30.8184372 3.19724593,30.8184372 L3.18480695,30.8184372 C2.82905197,30.8184372 2.50439445,30.6161647 2.34766324,30.2972443 C2.18844422,29.974601 2.23073677,29.5886701 2.45588241,29.3082187 C8.57461927,21.6491648 1.14854506,2.47298851 1.07266725,2.27940257 C0.953252986,1.97537338 1.00176503,1.63287518 1.20078879,1.37476059 C1.37866628,1.14270566 1.65356786,1.00992556 1.94215232,1.00992556 C1.97573758,1.00992556 2.00932284,1.01116649 2.0429081,1.0148893 L77.3460372,9.18893143 C77.4878416,9.20382265 77.6234266,9.2509782 77.7428408,9.32667527 L114.496311,32.475086 C114.746334,32.6326849 114.906797,32.8982451 114.929187,33.1923468 C114.951577,33.4864485 114.833407,33.7731046 114.609505,33.9666905 L112.014733,36.209061 C111.841831,36.3579732 111.624149,36.4361522 111.403979,36.4361522 C111.275857,36.4361522 111.14898,36.4100925 111.028322,36.3579732 C110.938761,36.3182633 101.970252,32.3857387 96.9337073,30.4411928 C96.7247324,30.360532 96.3042947,30.263739 95.4882972,30.263739 C87.4850541,30.263739 61.9042809,39.2456301 61.6467939,39.3362184 C61.5460381,39.3697237 61.4415506,39.3870968 61.3370631,39.3870968 L61.3370631,39.3870968 Z" fill="#EC620F"></path>
                            <path d="M2.01634877,2.01985112 L77.2191858,10.1581482 L113.923706,33.205331 L111.333631,35.4378956 C111.333631,35.4378956 102.327378,31.4978577 97.2192796,29.5309276 C96.7931906,29.3666049 96.1894611,29.2912388 95.439147,29.2912388 C87.1931456,29.2912388 61.3321548,38.3771712 61.3321548,38.3771712 C53.1706259,30.3340083 14.7468432,29.8360983 5.34058796,29.8360983 C4.0089047,29.8360983 3.25734838,29.8459823 3.25734838,29.8459823 C9.78036033,21.7076853 2.01634877,2.01985112 2.01634877,2.01985112 L2.01634877,2.01985112 Z M1.86797094,0 C1.290046,0 0.739522668,0.269080943 0.384547218,0.733743868 C-0.0127761813,1.25321958 -0.109927357,1.94211662 0.129213999,2.55004023 C2.18184397,7.79587288 6.45774124,22.731111 1.65374014,28.7605173 C1.20410457,29.3248398 1.11940868,30.0984475 1.43701829,30.7474807 C1.75089132,31.3890395 2.40230241,31.7939066 3.11474437,31.7939066 L3.13965492,31.7939066 C3.14712809,31.7939066 3.89070825,31.7839407 5.20349465,31.7839407 C26.7374264,31.7839407 54.0169784,33.8979701 60.0278961,39.8551232 C60.384117,40.2076691 60.8586632,40.3970223 61.3431735,40.3970223 C61.5511767,40.3970223 61.7616709,40.3621415 61.9646919,40.2898883 C62.2212707,40.1989489 87.684843,31.2358128 95.5391419,31.2358128 C96.3126147,31.2358128 96.5990861,31.3317352 96.6489073,31.3504214 C101.672121,33.2950295 110.632449,37.2340755 110.722127,37.2739393 C110.963759,37.3798277 111.219093,37.432149 111.474426,37.432149 C111.915343,37.432149 112.352523,37.2751851 112.69878,36.9762063 L115.295705,34.7251449 C115.74285,34.3377181 115.9795,33.7621839 115.934661,33.1717007 C115.889822,32.5824633 115.568476,32.0480386 115.069019,31.7328651 L78.2674066,8.49349014 C78.0270197,8.34150924 77.7554946,8.24683261 77.4715142,8.21568898 L2.06974646,0.00996596086 C2.00248795,0.00249149021 1.93522945,0 1.86797094,0 L1.86797094,0 L1.86797094,0 Z" fill="#4D4D4D"></path>
                        </g>
                        <path d="M46.3760218,74.911073 C47.4248921,78.7252933 48.4737624,83.8158531 48.2885945,88.4390384 C61.8381594,90.0101075 82.4775407,92.8451843 86.7214886,95.942928 C86.7214886,95.942928 111.560079,88.2417299 130.054496,83.6222441 L119.69628,77.1332602 L50.7156605,69.6848635 L46.3760218,74.911073 L46.3760218,74.911073 Z" id="Shape" fill="#C44C10"></path>
                        <path d="M2.01634877,26.3019756 C2.01634877,26.3019756 13.2032598,48.393918 13.8247548,53.7097955 C14.4462499,59.025673 2.01634877,73.9163402 2.01634877,73.9163402 C2.01634877,73.9163402 56.8806893,71.0795495 87.5576853,92.048699 C87.5576853,92.048699 111.650563,82.7819322 127.062397,86.1329222 C142.474231,89.4839123 159.577775,104.921072 162.112232,107.892001 C164.646689,110.862931 142.710399,73.9175822 142.710399,73.9175822 C142.710399,73.9175822 126.050603,71.8694789 116.418673,70.1269144 C116.418673,70.1269144 93.0293277,74.3050948 88.5408904,70.1269144 C84.0536961,65.947492 27.4976461,24.7283268 2.01634877,26.3019756 L2.01634877,26.3019756 Z" id="Shape" stroke="#4D4D4D" stroke-width="1.5" fill="#EC620F"></path>
                        <g transform="translate(0.000000, 23.228288)" id="Shape">
                            <path d="M163.4175,84.8337469 C162.941663,84.8337469 162.663675,84.5102133 162.514663,84.3360029 C159.519396,80.8455732 142.563335,66.0526217 127.719737,62.8434173 C125.539654,62.3718049 123.04026,62.1328878 120.290425,62.1328878 C105.870071,62.1328878 88.631012,68.663289 88.4582082,68.72924 C88.3492667,68.7715483 88.2340641,68.791458 88.1201138,68.791458 C87.9335357,68.791458 87.7482099,68.7367062 87.5904325,68.6284469 C63.5181091,52.2626244 24.4005835,50.4956332 8.70047994,50.4956332 C4.53565744,50.4956332 2.02123664,50.622558 1.99619261,50.6238023 C1.97991399,50.6238023 1.96363537,50.6250467 1.94735675,50.6250467 C1.59298369,50.6250467 1.26741128,50.4259491 1.10712948,50.1086373 C0.940586665,49.7763932 0.986918124,49.378198 1.22608863,49.0932395 C4.63708577,45.0291599 13.3849661,33.594736 12.9103817,29.5542991 C12.3105771,24.4524232 1.22233202,2.62759353 1.10963388,2.40858618 C0.966882899,2.12736082 0.97564831,1.79511671 1.13342571,1.52260187 C1.28995091,1.25008703 1.57545287,1.07463228 1.88975547,1.05596688 C2.38938391,1.02485788 2.90028216,1.00992556 3.42245022,1.00992556 C30.7229494,1.00992556 86.6287417,42.3152107 89.7542368,45.2095921 C90.5468805,45.9437644 92.6919018,46.8185495 98.4044455,46.8185495 C106.543756,46.8185495 116.928264,44.9918291 117.032196,44.9731637 C117.086041,44.9632088 117.14239,44.9582313 117.197487,44.9582313 C117.253836,44.9582313 117.308933,44.9632088 117.365282,44.9731637 C126.932102,46.6941135 143.632715,48.74233 143.799258,48.7634842 C144.087264,48.7983262 144.343965,48.9650705 144.491725,49.2126981 C164.846262,83.3056728 164.594569,83.7436876 164.246457,84.3521796 C164.079915,84.6458485 163.755594,84.8337469 163.4175,84.8337469 L163.4175,84.8337469 Z" fill="#EC620F"></path>
                            <path d="M3.47936336,2.01985112 C29.5973434,2.01985112 84.1390741,41.7878436 88.5417909,45.8878543 C90.0383666,47.2801936 93.6331314,47.7447207 97.7636305,47.7447207 C106.023386,47.7447207 116.41862,45.8878543 116.41862,45.8878543 C126.050651,47.630452 142.710621,49.6785943 142.710621,49.6785943 C142.710621,49.6785943 162.984,83.8238213 162.299106,83.8238213 C162.27176,83.8238213 162.209609,83.7691711 162.112655,83.6536603 C159.578172,80.6826741 142.47445,65.2452208 127.062455,61.8941669 C124.701993,61.3811998 122.140163,61.1638409 119.491324,61.1638409 C104.838804,61.1638409 87.5585755,67.8100564 87.5585755,67.8100564 C63.4132413,51.3056812 24.2884774,49.549421 8.7186212,49.549421 C4.50608388,49.549421 2.01634877,49.6785943 2.01634877,49.6785943 C2.01634877,49.6785943 14.4463792,34.7876435 13.8248777,29.4716648 C13.2033762,24.155686 2.01634877,2.06332291 2.01634877,2.06332291 C2.49366194,2.03351368 2.98091914,2.01985112 3.47936336,2.01985112 L3.47936336,2.01985112 Z M3.33409527,0 C2.79618413,0 2.26449881,0.0162060926 1.75273612,0.0473716553 C1.12517312,0.086016953 0.559868347,0.4375645 0.247332011,0.983585158 C-0.0652043263,1.52960582 -0.082636632,2.19654886 0.201260917,2.75752899 C4.64525369,11.5524508 11.4139689,25.9683934 11.8423056,29.6396967 C12.1735194,32.4795028 6.30256789,41.4626646 0.434106714,48.5060817 C-0.0415461972,49.0770349 -0.133688384,49.8748733 0.197525423,50.5393231 C0.515042419,51.1751005 1.16377322,51.5727731 1.86729127,51.5727731 C1.89966555,51.5727731 1.93203983,51.5715265 1.96316895,51.5702799 C1.98807225,51.5690332 4.46844031,51.4431244 8.58121927,51.4431244 C24.1071778,51.4431244 62.7795027,53.1971222 86.5036255,69.4443534 C86.8186522,69.6600191 87.1872209,69.7709685 87.55828,69.7709685 C87.7849,69.7709685 88.0115199,69.7298299 88.2281786,69.6463062 C88.3987662,69.5814819 105.396509,63.1002914 119.546561,63.1002914 C122.213704,63.1002914 124.631813,63.3321632 126.734897,63.7909203 C141.267214,66.9560949 157.886427,81.5677573 160.82128,85.0159151 C161.01428,85.2428004 161.526043,85.8436725 162.430033,85.8436725 C163.101176,85.8436725 163.73372,85.4759188 164.066179,84.8912529 C164.775923,83.6433837 164.803317,83.5947655 154.361366,65.6758135 C149.464133,57.2735778 144.463551,48.8326968 144.413745,48.7479265 C144.118641,48.2505241 143.609368,47.9164293 143.035348,47.8466184 C142.868495,47.8266725 126.287882,45.7772251 116.802218,44.0581326 C116.692643,44.0381867 116.580579,44.0282137 116.469759,44.0282137 C116.360184,44.0282137 116.249365,44.0381867 116.141035,44.056886 C116.038932,44.0755854 105.788736,45.8906677 97.7810821,45.8906677 C91.7457688,45.8906677 90.1581839,44.8484913 89.8157636,44.529356 C87.6927578,42.5497194 73.200286,31.6280596 55.054501,20.7363188 C26.5028746,3.59775256 11.1686715,0 3.33409527,0 L3.33409527,0 L3.33409527,0 Z" fill="#4D4D4D"></path>
                        </g>
                        <g transform="translate(84.686649, 205.014888)" id="Shape">
                            <path d="M4.5597096,52.516129 C4.10767488,52.516129 3.71932461,52.1947426 3.63815815,51.7529914 C2.6404351,46.3018314 -2.02601174,18.9591699 4.14263889,15.9078604 C9.6894296,13.1642877 58.2269701,1.00992556 61.855735,1.00992556 C61.890699,1.00992556 61.9493886,1.01364818 62.0105756,1.01985255 L104.665421,1.00992556 L142.648825,1.01985255 C142.710012,1.01364818 142.768702,1.00992556 142.803666,1.00992556 C146.431182,1.00992556 194.968722,13.1642877 200.516762,15.9078604 C206.685412,18.9591699 202.018965,46.3018314 201.021242,51.7529914 C200.940076,52.1947426 200.551726,52.516129 200.099691,52.516129 L4.5597096,52.516129 L4.5597096,52.516129 Z" fill="#337BA9"></path>
                            <path d="M142.780785,2.01985112 C145.908295,2.01985112 194.293596,13.9374927 200.04442,16.7737306 C205.891341,19.6582081 200.04442,51.5062035 200.04442,51.5062035 L105.183272,51.5062035 L99.4761282,51.5062035 L4.6149804,51.5062035 C4.6149804,51.5062035 -1.23194076,19.6582081 4.6149804,16.7737306 C10.3658049,13.9374927 58.7560975,2.01985112 61.8786155,2.01985112 C61.9310319,2.01985112 61.9709682,2.02356185 61.9971763,2.02974641 L99.9952998,2.02108803 L99.9952998,2.01985112 L102.330324,2.01985112 L104.665349,2.01985112 L104.665349,2.02108803 L142.663472,2.02974641 C142.688432,2.02232494 142.728369,2.01985112 142.780785,2.01985112 L142.780785,2.01985112 Z M142.834366,0 C142.751883,0 142.67315,0.00373359445 142.596916,0.00995625187 L104.666087,0.00124453148 L102.329075,0.00124453148 L99.9908137,0.00124453148 L62.0587357,0.0112007834 C61.9825017,0.00497812594 61.9037681,0.00124453148 61.8225351,0.00124453148 C58.1620495,0.00124453148 9.23226837,12.272325 3.64343558,15.0414075 C1.40765252,16.1502851 -0.980598705,19.4694505 0.415359754,35.4367895 C1.14645707,43.8012856 2.61989934,51.9131418 2.63489621,51.9940363 C2.79736228,52.8813873 3.5734502,53.5260546 4.47951097,53.5260546 L99.4721721,53.5260546 L105.187228,53.5260546 L200.17989,53.5260546 C201.08595,53.5260546 201.862038,52.8813873 202.024504,51.9940363 C202.039501,51.9131418 203.512943,43.800041 204.244041,35.4367895 C205.639999,19.4694505 203.251748,16.1502851 201.015965,15.0414075 C195.424633,12.2698359 146.493602,0 142.834366,0 L142.834366,0 L142.834366,0 Z" fill="#4D4D4D"></path>
                        </g>
                        <g transform="translate(133.079019, 145.429280)" id="Shape">
                            <path d="M15.4991484,69.6848635 C7.50848274,69.6848635 1.00817439,62.5642906 1.00817439,53.8129571 L1.00817439,16.8818319 C1.00817439,8.13049846 7.50848274,1.00992556 15.4991484,1.00992556 L91.3673366,1.00992556 C99.3580023,1.00992556 105.858311,8.13049846 105.858311,16.8818319 L105.858311,53.8129571 C105.858311,62.5642906 99.3580023,69.6848635 91.3673366,69.6848635 L15.4991484,69.6848635 L15.4991484,69.6848635 Z" fill="#337BA9"></path>
                            <path d="M91.3154318,2.01985112 C98.790734,2.01985112 104.850136,8.69318448 104.850136,16.9240016 L104.850136,53.7707875 C104.850136,62.0016046 98.790734,68.674938 91.3154318,68.674938 L15.5510532,68.674938 C8.07575104,68.674938 2.01634877,62.0016046 2.01634877,53.7707875 L2.01634877,16.9240016 C2.01634877,8.69318448 8.07575104,2.01985112 15.5510532,2.01985112 L91.3154318,2.01985112 L91.3154318,2.01985112 Z M90.5549888,0 L15.3033219,0 C6.86541246,0 0,7.55514925 0,16.8418948 L0,53.8528943 C0,63.1396398 6.86541246,70.6947891 15.3033219,70.6947891 L90.5549888,70.6947891 C98.9928982,70.6947891 105.858311,63.1396398 105.858311,53.8528943 L105.858311,16.8418948 C105.858311,7.55514925 98.9941383,0 90.5549888,0 L90.5549888,0 L90.5549888,0 Z" fill="#4D4D4D"></path>
                        </g>
                        <g transform="translate(85.702997, 89.883375)" id="Shape">
                            <path d="M21.5829971,102.036268 C7.73308211,98.2317183 1,90.9548716 1,79.7929288 C1,65.0441626 12.6097075,45.3002729 30.5762219,29.4918206 C42.6668638,18.8546867 67.9994,1.00992556 101.818062,1.00992556 C156.49632,1.00992556 202.634877,48.4126288 202.634877,78.1832632 C202.634877,103.955533 167.820706,105.946535 118.635816,105.946535 C115.932117,105.946535 104.71862,105.928916 101.818062,105.928916 C96.5539477,105.928916 91.3845255,105.957862 86.3396977,105.988067 C81.5303533,106.015754 76.8343898,106.042184 72.2792181,106.042184 C50.5985442,106.042184 33.6798687,105.361316 21.5829971,102.036268 Z" fill="#337BA9"></path>
                            <path d="M101.824991,2.01985112 C156.948455,2.01985112 201.634877,49.2680447 201.634877,77.4043857 C201.634877,102.617196 165.748288,103.927744 118.626597,103.927744 C113.16343,103.927744 107.552104,103.91032 101.826236,103.91032 C91.5547827,103.91032 81.6369167,104.022333 72.3116825,104.022333 C31.5931531,104.022333 2.01634877,101.890358 2.01634877,78.9974549 C2.01634877,50.8611139 46.7027716,2.01985112 101.824991,2.01985112 L101.824991,2.01985112 Z M101.322146,0 C67.3425591,0 41.9074957,17.8430366 29.7699793,28.4789592 C11.685911,44.3273703 0,64.1862518 0,79.0722997 C0,90.6256502 6.92792517,98.1373252 21.1807913,102.037954 C33.3257518,105.361914 50.2435862,106.042184 71.9107218,106.042184 C76.4478676,106.042184 81.1264503,106.015971 85.9166937,105.988511 C90.9153704,105.959802 96.0852601,105.929846 101.320906,105.929846 C104.206714,105.929846 107.062746,105.934838 109.886521,105.938583 C112.64578,105.942328 115.372782,105.94732 118.063805,105.94732 C140.713555,105.94732 162.298806,105.651497 177.456123,102.080393 C194.403734,98.0873972 202.643052,90.0389957 202.643052,77.4746021 C202.643052,62.6721837 190.950937,43.1203597 172.855703,27.6638838 C160.76037,17.3337705 135.382377,0 101.322146,0 L101.322146,0 L101.322146,0 Z" fill="#4D4D4D"></path>
                        </g>
                        <g transform="translate(87.719346, 91.893300)" id="Shape" fill="#2F6989">
                            <path d="M12.435193,76.9780108 C12.435193,49.9176556 53.7212771,3.71392236 105.858311,0.219051721 C103.816452,0.0883674557 101.763402,0 99.6892114,0 C44.6323946,0 0,48.8410662 0,76.9780108 C0,101.137175 32.9159558,102.175182 77.0695954,101.986001 C39.3113755,101.759481 12.435193,98.8097509 12.435193,76.9780108 L12.435193,76.9780108 Z"></path>
                            <path d="M113.651488,101.002481 C112.05,101.002481 110.458562,101.005511 108.874659,101.008541 C113.68289,101.0146 118.394402,101.01965 122.989101,101.010561 C119.914245,101.006521 116.802964,101.002481 113.651488,101.002481 L113.651488,101.002481 Z"></path>
                        </g>
                        <path d="M222.80654,127.25062 L190.030919,166.637717 L180.463215,155.6651 L201.925055,129.233893 L222.80654,127.25062 Z" id="Shape" stroke="#4D4D4D" stroke-width="1.5" fill="#EC620F"></path>
                        <path d="M88.229911,76.4538931 C73.673564,64.1443105 38.2256205,57.2611195 13.8369062,53.5260546 C13.8481389,53.5980259 13.864364,53.6786835 13.8731005,53.7456913 C14.4971401,59.0566806 2.01634877,73.9336549 2.01634877,73.9336549 C2.01634877,73.9336549 57.1053136,71.0994728 87.9079065,92.0493401 C87.9079065,92.0493401 112.099424,82.7910945 127.574358,86.1390032 C135.059088,87.7583585 138.745914,89.4298311 145.177266,93.9230769 L149.209809,91.3482398 L119.842507,77.6724425 L88.229911,76.4538931 L88.229911,76.4538931 Z" id="Shape" fill="#C44C10"></path>
                        <path d="M181.042802,214.104218 L195.585831,214.104218 L195.585831,163.990615 L176.957766,128.260546 L162.316076,136.343627 L180.945391,172.073696 L181.042802,214.104218 Z" id="Shape" stroke="#4D4D4D" stroke-width="1.5" fill="#EC620F"></path>
                        <g transform="translate(142.152589, 78.774194)" id="Shape">
                            <path d="M44.3603005,63.6253102 C19.9010153,63.6253102 0,49.5810883 0,32.3176179 C0,15.0541474 19.8997602,1.00992556 44.3603005,1.00992556 C68.8208408,1.00992556 88.719346,15.0541474 88.719346,32.3176179 C88.719346,49.5810883 68.8195858,63.6253102 44.3603005,63.6253102 L44.3603005,63.6253102 Z" fill="#EC620F"></path>
                            <path d="M45.3678474,2.01985112 C69.3111075,2.01985112 88.719346,15.5844336 88.719346,32.3169945 C88.719346,49.0495553 69.3098544,62.6153846 45.3678474,62.6153846 C21.4258404,62.6153846 2.01634877,49.0508021 2.01634877,32.3169945 C2.01634877,15.5831869 21.4245873,2.01985112 45.3678474,2.01985112 L45.3678474,2.01985112 Z M44.8637602,0 C20.1256131,0 0,14.4969908 0,32.3169916 C0,50.1369923 20.1256131,64.6352357 44.8637602,64.6352357 C69.6019073,64.6352357 89.7275204,50.1369923 89.7275204,32.3169916 C89.7275204,14.4969908 69.6019073,0 44.8637602,0 L44.8637602,0 L44.8637602,0 Z" fill="#4D4D4D"></path>
                        </g>
                        <path d="M155.637223,111.091188 C155.637223,95.8459936 171.680704,83.2351708 192.561308,81.1132113 C190.523902,80.9062517 188.442828,80.7940447 186.323078,80.7940447 C162.485552,80.7940447 143.160763,94.3586272 143.160763,111.092435 C143.160763,127.826242 162.485552,141.389578 186.323078,141.389578 C188.442828,141.389578 190.523902,141.277371 192.561308,141.070412 C171.680704,138.947205 155.637223,126.336382 155.637223,111.091188 L155.637223,111.091188 Z" id="Shape" fill="#C44C10"></path>
                        <g transform="translate(134.087193, 84.833747)" id="Shape">
                            <path d="M41.8398601,46.4565757 C19.3257396,46.4565757 1.00817439,36.0357555 1.00817439,23.2282878 C1.00817439,10.4208201 19.3244936,0 41.8398601,0 C64.3527345,0 82.6702997,10.4195712 82.6702997,23.2282878 C82.6702997,36.0370044 64.3527345,46.4565757 41.8398601,46.4565757 L41.8398601,46.4565757 Z" fill="#EC620F"></path>
                            <path d="M41.8392371,1.00992556 C63.8333017,1.00992556 81.6621253,10.9570897 81.6621253,23.2282878 C81.6621253,35.499486 63.8333017,45.4466501 41.8392371,45.4466501 C19.8451724,45.4466501 2.01634877,35.499486 2.01634877,23.2282878 C2.01634877,10.9570897 19.8451724,1.00992556 41.8392371,1.00992556 L41.8392371,1.00992556 Z M41.8392371,-1.00992556 C30.8498685,-1.00992556 20.4896052,1.40024151 12.6669822,5.77712495 C4.4986011,10.346922 0,16.5439576 0,23.2282878 C0,29.9126181 4.4986011,36.1096537 12.6669822,40.6794507 C20.4896052,45.0563342 30.8498685,47.4665012 41.8392371,47.4665012 C52.8286056,47.4665012 63.1888689,45.0563342 71.0114919,40.6794507 C79.179873,36.1096537 83.6784741,29.9126181 83.6784741,23.2282878 C83.6784741,16.5439576 79.179873,10.346922 71.0114919,5.77712495 C63.1888689,1.40024151 52.8286056,-1.00992556 41.8392371,-1.00992556 L41.8392371,-1.00992556 L41.8392371,-1.00992556 Z" fill="#4D4D4D"></path>
                        </g>
                        <path d="M149.639343,108.062035 C149.639343,96.9721479 164.310447,87.7805749 183.487738,86.115038 C181.446988,85.9382769 179.354874,85.8436725 177.223925,85.8436725 C155.07007,85.8436725 137.111717,95.7908366 137.111717,108.062035 C137.111717,120.333233 155.07007,130.280397 177.223925,130.280397 C179.354874,130.280397 181.446988,130.185793 183.487738,130.009032 C164.309194,128.34225 149.639343,119.151922 149.639343,108.062035 L149.639343,108.062035 Z" id="Shape" fill="#C44C10"></path>
                        <g transform="translate(150.217984, 80.794045)" id="Shape">
                            <path d="M32.2615804,31.3076923 C14.7356937,31.3076923 1.00817439,24.6528793 1.00817439,16.1588089 C1.00817439,7.66473856 14.7356937,1.00992556 32.2615804,1.00992556 C49.787467,1.00992556 63.5149864,7.66473856 63.5149864,16.1588089 C63.5149864,24.6528793 49.786231,31.3076923 32.2615804,31.3076923 L32.2615804,31.3076923 Z" fill="#EC620F"></path>
                            <path d="M33.2697548,2.01985112 C49.9733573,2.01985112 63.5149864,8.34968875 63.5149864,16.1588089 C63.5149864,23.9679291 49.9733573,30.2977667 33.2697548,30.2977667 C16.5649195,30.2977667 3.02452316,23.9679291 3.02452316,16.1588089 C3.02329042,8.35093184 16.5649195,2.01985112 33.2697548,2.01985112 L33.2697548,2.01985112 Z M33.2697548,0 C15.17923,0 1.00817439,7.09787669 1.00817439,16.1588089 C1.00817439,25.2197412 15.17923,32.3176179 33.2697548,32.3176179 C51.3602795,32.3176179 65.5313351,25.2197412 65.5313351,16.1588089 C65.5313351,7.09787669 51.3602795,0 33.2697548,0 L33.2697548,0 L33.2697548,0 Z" fill="#4D4D4D"></path>
                        </g>
                        <path d="M165.531072,96.9528536 C165.531072,90.1319936 175.832577,84.4386204 189.536785,83.1085092 C187.55341,82.9158295 185.498762,82.8138958 183.392502,82.8138958 C166.740267,82.8138958 153.242507,89.1437334 153.242507,96.9528536 C153.242507,104.761974 166.741496,111.091811 183.392502,111.091811 C185.498762,111.091811 187.55341,110.989878 189.536785,110.797198 C175.832577,109.467087 165.531072,103.774957 165.531072,96.9528536 L165.531072,96.9528536 Z" id="Shape" fill="#C44C10"></path>
                        <path d="M203.991723,71.7047146 C211.599382,71.7047146 217.765668,64.6683896 217.765668,55.9895795 L217.765668,46.5262799 C207.759456,47.907691 197.199349,48.6541599 186.277031,48.6541599 C175.16054,48.6541599 164.414971,47.886146 154.250681,46.4565757 L154.250681,55.9895795 C154.250681,64.6683896 160.418212,71.7047146 168.024626,71.7047146" id="Shape" stroke="#4D4D4D" fill="#FADD64"></path>
                        <g transform="translate(148.201635, 28.277916)" id="Shape">
                            <path d="M38.8239886,73.7245658 C16.270021,73.7245658 7.11768638,58.7711869 1.1397535,44.1445289 C0.936088913,43.6500997 1.01529181,43.1792738 1.07186531,42.835161 C1.07563687,42.809073 1.08066563,42.7842273 1.08443719,42.7593816 C1.07563687,42.708448 1.07060812,42.656272 1.07060812,42.6040961 L1.07060812,17.1509284 C1.07060812,16.8776258 1.19129824,16.6192306 1.40250597,16.4415839 C1.57474084,16.2974789 1.7922345,16.219215 2.01349974,16.219215 C2.0625301,16.219215 2.11281766,16.2229419 2.16184802,16.2303956 C3.63024457,16.4614605 5.11121301,16.6788603 6.60475334,16.8813527 C7.07117039,16.9447092 7.41815451,17.3397557 7.41815451,17.8043701 L7.41815451,27.1488343 C7.41815451,35.0833056 13.1685362,41.5469119 20.2628528,41.621449 L30.0010374,38.9803521 C32.9403449,38.1828054 35.9777131,37.779063 39.026396,37.779063 C42.4032052,37.779063 45.7548706,38.2722499 48.9845887,39.2474433 L56.8533336,41.621449 C63.9413642,41.538216 69.6842028,35.0770941 69.6842028,27.1488343 L69.6842028,17.873938 C69.6842028,17.4080813 70.0324441,17.0130348 70.5001183,16.9509206 C71.9056554,16.7620934 73.3049066,16.5645701 74.6903287,16.3533817 L74.6903287,1.94163895 C74.6903287,1.42733316 75.1127441,1.00992556 75.6332203,1.00992556 C76.1536965,1.00992556 76.5761119,1.42733316 76.5761119,1.94163895 L76.5761119,42.6040961 C76.5761119,42.6637257 76.569826,42.7233554 76.5585113,42.7805005 C76.5622828,42.8041039 76.5660544,42.8277073 76.5685688,42.8513107 C76.6150848,43.1867275 76.6716583,43.6016506 76.5383962,44.057569 C72.5292211,57.5910166 62.7319485,73.7245658 38.8239886,73.7245658 L38.8239886,73.7245658 Z" fill="#337BA9"></path>
                            <path d="M75.5670468,2.01985112 L75.5670468,42.5925342 L75.529399,42.5925342 C75.5494778,42.9879481 75.6812454,43.399476 75.5670468,43.7812548 C70.5711738,60.6439819 59.1161805,72.7146402 38.822721,72.7146402 C18.5292616,72.7146402 8.97423093,60.6452214 2.07839519,43.7812548 C1.92780369,43.4118714 2.0959642,42.9867085 2.11729799,42.5925342 L2.07839519,42.5925342 L2.07839519,17.1968013 C3.5504271,17.4285956 5.03626322,17.6455154 6.53339371,17.8500398 L6.53339371,27.1738734 C6.53339371,35.6622559 12.7515677,42.5441921 20.4204398,42.5441921 L30.2653591,39.8754585 C33.1341271,39.0982658 36.0794459,38.7090497 39.0247646,38.7102892 C42.2838156,38.7102892 45.5416117,39.1862733 48.6889741,40.1345228 L56.680363,42.5441921 C64.35049,42.5441921 70.5674091,35.6622559 70.5674091,27.1738734 L70.5674091,17.9194541 C72.2477592,17.6938575 73.9155601,17.457105 75.563282,17.1968013 L75.563282,2.01985112 L75.5670468,2.01985112 Z M75.6912293,0 C74.6485436,0 73.8023059,0.836607999 73.8023059,1.86742857 L73.8023059,15.5096167 C72.7508052,15.6652358 71.6338219,15.8233447 70.4236516,15.9851885 C69.4867457,16.1109287 68.7891033,16.9014735 68.7891033,17.8351878 L68.7891033,27.1300022 C68.7891033,34.5100799 63.5315999,40.5344045 57.013555,40.6962483 L49.2752655,38.3607177 C45.9507604,37.357286 42.5015863,36.8481005 39.0259673,36.8481005 C35.8878359,36.8481005 32.7622974,37.2639146 29.7362421,38.0855832 L20.1128072,40.6962483 C13.5821694,40.5493439 8.31081391,34.5200396 8.31081391,27.1287573 L8.31081391,17.7642255 C8.31081391,16.8317562 7.61443083,16.0424564 6.6800434,15.9142263 C5.17142326,15.7088091 3.68043308,15.4896975 2.24862916,15.2631162 C2.14914586,15.2469318 2.04966256,15.2394621 1.95143855,15.2394621 C1.50565263,15.2394621 1.06994097,15.3963261 0.724897634,15.6864 C0.304297363,16.0412114 0.0625151704,16.5603565 0.0625151704,17.1068906 L0.0625151704,42.613475 C0.0625151704,42.6595382 0.0637744527,42.7043565 0.0675522994,42.7491748 C0.000810340162,43.1562742 -0.0885986996,43.8011596 0.199776936,44.5070476 C6.30603657,59.4539458 15.6700594,74.7344913 38.8232228,74.7344913 C58.2426144,74.7344913 71.6199698,64.2221134 77.5071143,44.3327542 C77.6909695,43.7140129 77.6267461,43.162499 77.5751155,42.7852784 C77.5801527,42.7292556 77.5826712,42.6719877 77.5826712,42.6147199 L77.5826712,1.86742857 C77.5801527,0.836607999 76.7351743,0 75.6912293,0 L75.6912293,0 L75.6912293,0 Z" fill="#4D4D4D"></path>
                        </g>
                        <g transform="translate(149.209809, 46.456576)" id="Shape" fill="#2F6989">
                            <path d="M60.0475729,25.248139 C67.3911966,25.248139 73.3563578,18.6647815 73.5967302,10.4466968 L73.5967302,0 C71.9864801,0.258049833 70.3553813,0.495109967 68.7144714,0.718588531 L68.7144714,9.9380053 C68.7144714,17.0942581 64.3558812,23.0861999 58.4741144,24.7641412 L60.0475729,25.248139 L60.0475729,25.248139 Z"></path>
                            <path d="M23.4301131,25.248139 L33.1151758,22.4317144 C35.1521871,21.8391271 37.2299386,21.4767725 39.3188011,21.313255 C35.5892186,21.0058422 31.8188959,21.3734294 28.1769667,22.4317144 L20.1634877,24.761511 C21.2128572,25.0676157 22.3029669,25.248139 23.4301131,25.248139 L23.4301131,25.248139 Z"></path>
                            <path d="M4.95094875,26.5978932 C4.80422681,26.228323 4.96806631,25.8029452 4.98885192,25.4085717 L4.95094875,25.4085717 L4.95094875,14.2991425 C4.5988161,12.9287563 4.40074148,11.4827199 4.40074148,9.98211603 L4.40074148,0.653568785 C2.94208088,0.448940987 1.49442443,0.231911504 0.0602174863,0 L0.0602174863,25.4085717 L0.0981206536,25.4085717 C0.0785577285,25.8041854 -0.0865044517,26.228323 0.0602174863,26.5978932 C6.77885956,43.4691451 16.0883665,55.5459057 35.8603703,55.5459057 C36.69424,55.5459057 37.5073241,55.5161417 38.3106267,55.4739759 C20.2051396,54.510365 11.3859284,42.7572884 4.95094875,26.5978932 L4.95094875,26.5978932 Z"></path>
                        </g>
                        <g transform="translate(132.070845, 0.000000)" id="Shape">
                            <path d="M54.9119498,37.3571478 L17.7362143,32.1794736 C17.2329473,32.0734462 6.88856816,29.8279361 2.0315433,27.0447153 C1.23678007,26.5890497 0.879261185,25.7963682 1.04992351,24.8698902 C2.05272038,19.4435564 25.2378824,5.15888095 38.3689157,3.18096398 C43.1275294,1.73949545 48.5002784,1.00992556 54.3364316,1.00992556 C77.76077,1.00992556 91.7438692,12.3119476 91.7438692,31.2428978 C91.7438692,31.7137102 91.4025446,32.1125753 90.9416317,32.1807359 L55.1698119,37.35841 C55.126212,37.3647212 55.0813664,37.3672457 55.0377666,37.3672457 C54.9966581,37.3659834 54.954304,37.3621967 54.9119498,37.3571478 L54.9119498,37.3571478 Z" fill="#337BA9"></path>
                            <path d="M54.3227355,2.01985112 C74.4331851,2.01985112 90.7356948,10.8623499 90.7356948,31.1984622 L55.0241326,36.3573201 L17.9110197,31.1984622 C17.9110197,31.1984622 7.34404856,28.9296714 2.56484764,26.1955522 C-2.10491542,23.5230575 24.1713625,6.28955434 38.5848256,4.16287742 L38.5848256,4.16413506 C43.346616,2.71532855 48.6841987,2.01985112 54.3227355,2.01985112 L54.3227355,2.01985112 Z M53.7590545,0 C47.9105852,0 42.5212065,0.720118515 37.736544,2.14185935 C25.0708254,4.06299744 1.20675042,17.9289781 0.0577896878,24.0635493 C-0.185330898,25.3619822 0.34780663,26.5210771 1.48442622,27.1635116 C6.41841658,29.9527377 16.8010231,32.1747473 17.2403679,32.2684613 C17.2847961,32.2783259 17.3279901,32.2857244 17.3724182,32.2918898 L54.2021016,37.3499825 C54.2860214,37.3610803 54.3699412,37.3672457 54.453861,37.3672457 C54.5414832,37.3672457 54.6291053,37.3610803 54.7154933,37.3487495 L90.1543295,32.2906567 C91.0663403,32.1599503 91.7438692,31.380644 91.7438692,30.4595335 C91.7438692,11.3862575 77.5441461,0 53.7590545,0 L53.7590545,0 L53.7590545,0 Z" fill="#4D4D4D"></path>
                        </g>
                        <path d="M162.114891,30.3402677 C162.114891,30.3402677 151.660969,28.1382061 146.932898,25.4845022 C142.313094,22.8906103 168.308259,6.16397484 182.567521,4.09984723 L182.567521,4.10106789 C185.544865,3.21243105 188.76704,2.64848844 192.12947,2.32989749 C190.084699,2.1260481 187.983334,2.01985112 185.835217,2.01985112 C180.258234,2.01985112 174.977755,2.69487333 170.264447,4.10106789 L170.264447,4.09984723 C156.005185,6.16397484 130.01002,22.8918309 134.629824,25.4845022 C139.357896,28.1382061 149.811817,30.3402677 149.811817,30.3402677 L186.527881,35.3473945 L192.561308,34.4917154 L162.114891,30.3402677 L162.114891,30.3402677 Z" id="Shape" fill="#2F6989"></path>
                        <g transform="translate(148.201635, 28.277916)" id="Shape">
                            <path d="M38.8046422,22.2183623 C23.4969594,22.2183623 18.6612978,21.1684147 13.5436294,20.0578932 C11.4449447,19.602327 9.27449934,19.1316173 6.29202541,18.7176956 C5.13126519,18.5574272 3.97805873,18.3883251 2.83366497,18.2116512 C1.77613939,18.0488588 1.00817439,17.149084 1.00817439,16.0738973 L1.00817439,3.17291857 C1.00817439,1.98036991 1.972537,1.00992556 3.15595848,1.00992556 C3.30325669,1.00992556 3.45181385,1.02506903 3.5978531,1.05535598 C7.39361456,1.84660255 21.1275986,4.43108895 38.5427787,4.43108895 C56.1178467,4.43108895 69.2110206,2.07375468 74.0252799,1.06166576 C74.1725781,1.03011686 74.3223942,1.01497338 74.4709514,1.01497338 C75.6568908,1.01497338 76.6212534,1.98541774 76.6212534,3.17670444 L76.6212534,16.0713734 C76.6212534,17.149084 75.8532884,18.0475969 74.7945039,18.2116512 C73.470079,18.4160881 72.1343234,18.6053815 70.7897552,18.7883652 C67.8752651,19.1846195 65.6229874,19.6414476 63.4437293,20.0831323 C58.0226517,21.1810342 52.9049833,22.2183623 38.8046422,22.2183623 L38.8046422,22.2183623 Z" fill="#EC620F"></path>
                            <path d="M3.21910276,3.02977667 C3.30079452,3.02977667 3.38374307,3.03855232 3.46794842,3.05610363 C7.77498909,3.94996626 21.2692102,6.42846056 38.5438743,6.42846056 C56.4507069,6.42846056 69.8720339,3.95874191 74.1589658,3.05986462 C74.2431711,3.04231332 74.3273765,3.03353767 74.410325,3.03353767 C75.0613455,3.03353767 75.613079,3.56133033 75.613079,4.24207004 L75.613079,17.0520117 C75.613079,17.6487559 75.1794843,18.1577437 74.5887901,18.2492611 C73.2729244,18.4511011 71.9444908,18.6391507 70.6097732,18.8196784 C60.5063884,20.1861725 58.5294479,22.2183623 38.8065447,22.2183623 C17.3140724,22.2183623 16.7409734,20.1648602 6.47797538,18.7507269 C5.32423644,18.5915115 4.17803828,18.4247741 3.0393809,18.2505148 C2.44868668,18.160251 2.01634877,17.6512633 2.01634877,17.0557727 L2.01634877,4.23705539 C2.01760557,3.55631568 2.56933911,3.02977667 3.21910276,3.02977667 L3.21910276,3.02977667 Z M3.05688431,1.00992556 C1.37161503,1.00992556 0,2.3510864 0,4.00053217 L0,16.4071802 C0,17.8939875 1.09156659,19.1380507 2.59636021,19.3638027 C3.73397921,19.5349372 4.87782151,19.6975757 6.03037643,19.8529319 C8.94536953,20.2449635 11.072493,20.6952537 13.1299156,21.1297656 C18.2404884,22.2087629 23.0685236,23.2282878 38.3019141,23.2282878 C52.3354526,23.2282878 57.4398022,22.2221138 62.8441148,21.1564674 C64.9836849,20.7340928 67.1966899,20.2983672 70.04945,19.9209003 C71.3824806,19.7449108 72.7080432,19.5604253 74.0224039,19.3638027 C75.5284422,19.1392644 76.6212534,17.8952012 76.6212534,16.4059665 L76.6212534,4.00295961 C76.6212534,2.35472756 75.2496384,1.01356672 73.5631244,1.01356672 C73.3515323,1.01356672 73.1386955,1.03541368 72.9308373,1.07789389 C69.2391765,1.83404159 55.8130319,4.30032107 38.0430249,4.30032107 C20.9152622,4.30032107 7.41568271,1.83040042 3.68543748,1.07303901 C3.47757931,1.0305588 3.26723181,1.00992556 3.05688431,1.00992556 L3.05688431,1.00992556 L3.05688431,1.00992556 Z" fill="#4D4D4D"></path>
                        </g>
                        <path d="M156.26703,32.2409368 C154.223662,31.8811681 152.644861,31.5581363 151.614104,31.3339142 C150.890638,31.1755653 150.217984,31.7544889 150.217984,32.5284984 L150.217984,45.4776389 C150.217984,46.0793648 150.635368,46.593682 151.202768,46.684891 C152.298856,46.8622418 153.402202,47.030725 154.512807,47.1903407 C155.132229,47.2802829 155.714147,47.3714919 156.26703,47.4665012 L156.26703,32.2409368 L156.26703,32.2409368 Z" id="Shape" fill="#C44C10"></path>
                        <path d="M125.690669,231.573196 L139.94907,235.714568 C145.402423,237.298664 149.209809,242.815864 149.209809,249.130793 L149.209809,260.840485 C149.209809,268.494637 143.675528,274.699752 136.848876,274.699752 L88.9838765,274.699752 C81.6753876,274.699752 75.9618176,267.627487 76.6827061,259.472229 L78.8914385,234.502828 C79.4728805,227.934192 84.3174001,222.048422 89.749587,221.173697" id="Shape" stroke="#4D4D4D" stroke-width="1.5" fill="#337BA9"></path>
                        <g transform="translate(77.629428, 208.044665)" id="Shape" fill="#2F6989">
                            <path d="M81.6621253,0 L69.5640327,0.00201985112"></path>
                            <path d="M25.5947717,12.9634936 C20.1579706,13.8244188 15.310447,19.61734 14.7298903,26.0823544 L12.5197884,50.6578567 C11.7984529,58.6844627 17.5143199,65.6451613 24.8285864,65.6451613 L12.3702888,65.6451613 C5.0572681,65.6451613 -0.659844663,58.6844627 0.0614907675,50.6578567 L2.27159276,26.0823544 C2.85339526,19.61734 7.70091885,13.8244188 13.1364741,12.9634936 L60.4904632,1.00992556 L25.5947717,12.9634936 L25.5947717,12.9634936 Z"></path>
                            <path d="M81.8642078,0.00908933002 L115.940054,0.00201985112 L112.036869,0.00100992556 L112.036869,0 L109.702941,0 L107.369013,0 L107.369013,0.00100992556 L81.6621253,0.00605955335 C81.7457027,0.00403970223 81.8280326,0.00100992556 81.8642078,0.00908933002 L81.8642078,0.00908933002 Z"></path>
                        </g>
                        <path d="M220.87176,266.149467 C220.87176,266.149467 158.661535,278.878871 139.120135,273.274077 C131.013795,270.949284 133.307052,239.855637 141.669448,238.777744 C164.568296,235.825744 222.80654,248.854354 222.80654,248.854354 L220.87176,266.149467 L220.87176,266.149467 Z" id="Shape" stroke="#4D4D4D" stroke-width="1.5" fill="#EDF1DC"></path>
                        <path d="M174.558008,53.5260546 L157.275204,50.1368858 L158.697958,45.4466501 L177.438692,51.5855218 L174.558008,53.5260546 Z" id="Shape" fill="#4D4D4D"></path>
                        <path d="M199.473573,53.5260546 L216.757493,50.1368858 L215.335951,45.4466501 L196.594005,51.5855218 L199.473573,53.5260546 Z" id="Shape" fill="#4D4D4D"></path>
                        <path d="M157.201342,238.342432 C157.201342,238.342432 153.683557,256.230645 160.299728,264.600496" id="Shape" stroke="#4D4D4D" stroke-width="1.5"></path>
                        <path d="M152.234332,238.342432 C152.234332,238.342432 144.430466,255.388136 146.550388,263.590571" id="Shape" stroke="#4D4D4D" stroke-width="1.5"></path>
                        <path d="M177.438692,240.362283 C177.438692,240.362283 172.200701,249.928803 172.403564,256.521092" id="Shape" stroke="#4D4D4D" stroke-width="1.5"></path>
                        <path d="M108.082132,258.460545 C110.508205,253.949946 115.292401,251.164352 120.45284,250.783088 C128.370295,250.196908 142.395717,249.779628 150.128196,255.513504 C161.741386,264.124874 168.195395,262.728973 168.364013,268.942224 C168.596805,277.542417 132.156631,277.680268 114.648133,270.860967 C105.893884,267.450696 105.893884,262.529026 108.082132,258.460545 L108.082132,258.460545 Z" id="Shape" stroke="#4D4D4D" stroke-width="1.5" fill="#2F6989"></path>
                        <g transform="translate(168.365123, 153.508685)" stroke="#4D4D4D" id="Shape" stroke-width="1.5" fill="#FADD64">
                            <path d="M14.5952066,42.4168734 L4.56140934,42.4168734 C2.04220813,42.4168734 0,40.5804062 0,38.3162175 L0,26.7080537 C0,25.0904208 1.05694371,23.6244798 2.70035433,22.9642468 L12.7341516,18.9319766 C15.4501451,16.7523374 19.1553127,19.7041134 19.1553127,22.6757834 L19.1553127,38.3162175 C19.156616,40.5804062 17.1144079,42.4168734 14.5952066,42.4168734 L14.5952066,42.4168734 Z"></path>
                            <path d="M22.7072457,41.4069479 L32.741043,41.4069479 C35.2602442,41.4069479 37.3024523,39.6180884 37.3024523,37.4125955 L37.3024523,26.1053566 C37.3024523,24.5296585 36.2455086,23.1017199 34.602098,22.4586025 L24.5683007,18.530863 C21.5512542,17.3499978 18.1471396,19.2829833 18.1471396,22.1776171 L18.1471396,37.4125955 C18.1458363,39.6180884 20.1880445,41.4069479 22.7072457,41.4069479 L22.7072457,41.4069479 Z"></path>
                            <path d="M9.35633315,38.6764821 C10.0474925,40.1783439 11.7880033,40.8186524 13.2434739,40.1054632 L19.5042678,37.0392706 C20.9597384,36.3260815 21.5802684,34.5300943 20.889109,33.0282325 L20.889109,33.0282325 C20.1979497,31.5263708 18.4574389,30.8860623 17.0019682,31.5992514 L10.7411743,34.665444 C9.28444249,35.3786332 8.66517379,37.1746204 9.35633315,38.6764821 L9.35633315,38.6764821 L9.35633315,38.6764821 Z"></path>
                            <path d="M12.0980926,18.5058854 L13.8310661,2.81548911 C14.1077594,1.04019888 15.5142833,-0.207703873 16.9705636,0.0287538909 C18.4280574,0.265211655 19.3843481,1.89689402 19.1076548,3.67218425 L16.3734887,21.2084367" transform="translate(15.598093, 10.500000) rotate(-8.000000) translate(-15.598093, -10.500000) "></path>
                            <path d="M25.9297704,33.6268543 C25.238611,35.1287161 23.4981002,35.7690246 22.0426296,35.0558354 L15.7818357,31.9896428 C14.3263651,31.2764537 13.7058352,29.4804665 14.3969945,27.9786047 L14.3969945,27.9786047 C15.0881539,26.476743 16.8286647,25.8364345 18.2841353,26.5496236 L24.5449292,29.6158163 C26.0016611,30.3290054 26.6209298,32.1249926 25.9297704,33.6268543 L25.9297704,33.6268543 L25.9297704,33.6268543 Z"></path>
                            <path d="M9.35633315,31.6070032 C10.0474925,33.108865 11.7880033,33.7491734 13.2434739,33.0359843 L19.5042678,29.9697917 C20.9597384,29.2566026 21.5802684,27.4606154 20.889109,25.9587536 L20.889109,25.9587536 C20.1979497,24.4568919 18.4574389,23.8165834 17.0019682,24.5297725 L10.7411743,27.5959651 C9.28444249,28.3091543 8.66517379,30.1051414 9.35633315,31.6070032 L9.35633315,31.6070032 L9.35633315,31.6070032 Z"></path>
                            <path d="M21.2548569,24.2145474 C19.8551781,24.4299039 18.5431177,23.1514582 18.3246259,21.3588956 L16.1618891,3.65858507 C15.9433972,1.86602249 16.8994378,0.239022994 18.2991167,0.0236665188 L18.2991167,0.0236665188 C19.6987955,-0.191689957 21.0108559,1.08675571 21.2293477,2.87807345 L23.1880109,18.9103049"></path>
                            <path d="M25.9297704,27.567301 C25.238611,29.0691627 23.4981002,29.7094712 22.0426296,28.9962821 L15.7818357,25.9300895 C14.3263651,25.2169003 13.7058352,23.4209131 14.3969945,21.9190514 L14.3969945,21.9190514 C15.0881539,20.4171896 16.8286647,19.7768811 18.2841353,20.4900703 L24.5449292,23.5562629 C26.0016611,24.269452 26.6209298,26.0654392 25.9297704,27.567301 L25.9297704,27.567301 L25.9297704,27.567301 Z"></path>
                        </g>
                        <path d="M247.3351,232.117195 L233.076698,236.206207 C231.71336,236.597536 230.453362,237.230641 229.329075,238.059411 C225.957458,240.543227 223.814714,244.776807 223.814714,249.454058 L223.814714,261.015706 C223.814714,268.573088 229.348996,274.699752 236.175647,274.699752 L284.040647,274.699752 C291.349136,274.699752 297.062706,267.7169 296.341817,259.664749 L294.133085,235.011034 C293.551643,228.525445 287.977519,222.037362 282.545332,221.173697" id="Shape" stroke="#4D4D4D" stroke-width="1.5" fill="#337BA9"></path>
                        <path d="M137.365612,154.51861 C135.933211,156.870674 135.095368,159.697341 135.095368,162.739738 L135.095368,199.311366 C135.095368,207.480719 141.119149,214.104218 148.550506,214.104218 L166.348774,214.104218 L137.365612,154.51861 L137.365612,154.51861 Z" id="Shape" fill="#2F6989"></path>
                        <path d="M155.258856,275.058741 C155.258856,275.058741 214.852494,279.457324 234.290901,273.938138 C242.354001,271.648853 239.10764,239.650642 230.789851,238.589213 C208.013147,235.682302 156.165799,259.415911 156.165799,259.415911 L155.258856,275.058741 L155.258856,275.058741 Z" id="Shape" stroke="#4D4D4D" stroke-width="1.5" fill="#EDF1DC"></path>
                        <g transform="translate(136.103542, 205.014888)" id="Shape">
                            <path d="M12.1346109,10.0992556 C7.30808531,10.0992556 2.82266575,7.27110794 0.136144682,2.532158 C-0.0393879732,2.22370564 -0.0456125355,1.83647107 0.11996082,1.52134225 C0.285534176,1.20621343 0.596762289,1.00992556 0.934133563,1.00992556 L98.8763757,1.00992556 C99.2137469,1.00992556 99.524975,1.20487813 99.6893035,1.52134225 C99.8548768,1.83513578 99.8486523,2.22237034 99.6731196,2.532158 C96.9878435,7.27110794 92.5024239,10.0992556 87.6746534,10.0992556 L12.1346109,10.0992556 L12.1346109,10.0992556 Z" fill="#EC620F"></path>
                            <path d="M98.8010899,2.01985112 L98.8061308,2.01985112 L98.8010899,2.01985112 Z M98.8010899,2.01985112 C96.3809409,6.28391782 92.2752643,9.08933002 87.6176893,9.08933002 L12.191575,9.08933002 C7.53275701,9.08933002 3.42708042,6.28391782 1.00817439,2.01985112 L98.8010899,2.01985112 L98.8010899,2.01985112 Z M98.94991,0 L98.9436766,0 L0.861018583,0 C0.185317272,0 -0.438023421,0.354999715 -0.768393988,0.930050622 C-1.09876455,1.50510153 -1.08754442,2.2090222 -0.735980272,2.77191558 C2.12515351,7.36016532 6.91615007,10.0992556 12.0786577,10.0992556 L87.7272841,10.0992556 C92.8611181,10.0992556 97.6284277,7.38934338 100.494548,2.84729223 C100.697757,2.55551165 100.817439,2.20294344 100.817439,1.82484442 C100.816192,0.815769892 99.9821622,0 98.94991,0 L98.94991,0 L98.94991,0 Z" fill="#4D4D4D"></path>
                        </g>
                        <path d="M171.931157,175.347977 C161.228531,176.685635 147.558342,171.856251 135.083491,167.703859 C134.332783,172.823383 137.038355,185.416208 141.900322,195.787139 C137.038355,185.416208 134.332783,172.823383 135.083491,167.703859 C130.434393,166.156446 125.94652,164.699467 121.846597,163.695909 C114.606548,161.922413 104.197404,187.489892 116.808289,193.00255 C117.433039,193.275106 118.149738,193.520029 118.916821,193.747368 C113.335635,171.126505 125.339404,165.40158 125.729873,165.013471 C125.339404,165.40158 113.335635,171.126505 118.916821,193.747368 C124.702058,195.468111 134.242094,195.956701 143.541551,195.924045 C142.676221,181.757431 146.434799,172.400106 146.434799,172.400106 C146.434799,172.400106 142.676221,181.757431 143.541551,195.924045 C157.080744,195.877572 170.07328,194.739621 170.07328,194.739621 C170.07328,194.739621 176.112952,174.825474 171.931157,175.347977 L171.931157,175.347977 Z M126.620991,193.905707 C121.912844,174.961551 129.046322,166.637717 129.046322,166.637717 C129.046322,166.637717 121.912844,174.961551 126.620991,193.905707 L126.620991,193.905707 Z M156.390072,174.717122 C155.550897,193.593066 159.291553,194.915633 159.291553,194.915633 C159.291553,194.915633 155.549443,193.594329 156.390072,174.717122 L156.390072,174.717122 Z" id="Shape" stroke="#4D4D4D" stroke-width="1.5" fill="#EDF1DC"></path>
                        <path d="M251.177864,163.695918 C236.078074,167.394001 215.785053,177.185632 201.093365,175.349152 C196.911574,174.826597 202.951239,194.742736 202.951239,194.742736 C202.951239,194.742736 223.41808,196.532739 239.748476,195.708709 C240.764954,174.697214 233.162156,169.295801 233.162156,169.295801 C233.162156,169.295801 240.764954,174.697214 239.748476,195.708709 C243.063679,195.541642 246.20506,195.266547 248.972348,194.846995 C255.687144,181.690159 248.971088,165.150531 248.971088,165.150531 C248.971088,165.150531 255.687144,181.688903 248.972348,194.846995 C251.879448,194.406089 254.379705,193.808166 256.217426,193.005491 C268.827036,187.492281 258.416644,161.922245 251.177864,163.695918 L251.177864,163.695918 Z M209.541571,194.915633 C210.370238,181.548784 207.683924,175.727047 207.683924,175.727047 C207.683924,175.727047 210.370238,181.548784 209.541571,194.915633 L209.541571,194.915633 Z M223.697876,193.905707 C224.91881,180.400093 216.15394,173.724313 216.790631,173.707196 C216.15394,173.723091 224.91759,180.39887 223.697876,193.905707 L223.697876,193.905707 Z M234.904632,194.915633 C232.285483,182.242268 220.790191,173.707196 220.790191,173.707196 C220.790191,173.707196 232.285483,182.242268 234.904632,194.915633 L234.904632,194.915633 Z" id="Shape" stroke="#4D4D4D" stroke-width="1.5" fill="#EDF1DC"></path>
                        <path d="M216.757493,239.352357 C216.820495,239.557695 229.152524,253.615826 228.850114,275.709677" id="Shape" stroke="#4D4D4D" stroke-width="1.5"></path>
                        <path d="M204.659401,242.382134 C204.659401,242.382134 221.450575,254.112528 222.80654,275.709677" id="Shape" stroke="#4D4D4D" stroke-width="1.5"></path>
                        <path d="M214.262534,252.48139 C214.262534,252.48139 215.634371,258.119451 213.73297,275.709677" id="Shape" stroke="#4D4D4D" stroke-width="1.5"></path>
                        <path d="M201.634877,243.39206 C201.634877,243.39206 210.92103,258.102122 206.482082,276.719603" id="Shape" stroke="#4D4D4D" stroke-width="1.5"></path>
                        <path d="M190.544959,246.421836 C190.544959,246.421836 197.408702,249.601788 199.618529,276.719603" id="Shape" stroke="#4D4D4D" stroke-width="1.5"></path>
                        <path d="M179.890455,249.451613 C179.890455,249.451613 181.878512,259.405856 178.446866,275.709677" id="Shape" stroke="#4D4D4D" stroke-width="1.5"></path>
                        <path d="M164.354739,256.521092 C163.969075,257.418382 168.715324,262.000527 168.344446,275.709677" id="Shape" stroke="#4D4D4D" stroke-width="1.5"></path>
                        <path d="M160.299728,54.5359801 C160.299728,54.5359801 164.895877,61.2839981 172.39782,60.5379339" id="Shape" stroke="#4D4D4D" stroke-width="2"></path>
                        <path d="M211.716621,54.5359801 C211.716621,54.5359801 207.120472,61.2839981 199.618529,60.5379339" id="Shape" stroke="#4D4D4D" stroke-width="2"></path>
                    </g>
                </g>
            </g>
        </g>
    </g>
</svg>